<mxfile host="app.diagrams.net" agent="Mozilla/5.0 (X11; Linux x86_64) AppleWebKit/537.36 (KHTML, like Gecko) Chrome/126.0.0.0 Safari/537.36" version="26.0.14">
  <diagram name="Page-1" id="HuN9UpD-jrKssPpoWPYT">
    <mxGraphModel dx="1434" dy="666" grid="1" gridSize="10" guides="1" tooltips="1" connect="1" arrows="1" fold="1" page="1" pageScale="1" pageWidth="850" pageHeight="1100" math="0" shadow="0">
      <root>
        <mxCell id="0" />
        <mxCell id="1" parent="0" />
        <mxCell id="4eMew_aEuMkMtaWdBanc-1" value="" style="rounded=0;whiteSpace=wrap;html=1;" vertex="1" parent="1">
          <mxGeometry x="60" y="100" width="690" height="810" as="geometry" />
        </mxCell>
        <mxCell id="4eMew_aEuMkMtaWdBanc-13" style="edgeStyle=orthogonalEdgeStyle;rounded=0;orthogonalLoop=1;jettySize=auto;html=1;exitX=0.9;exitY=0.5;exitDx=0;exitDy=0;exitPerimeter=0;" edge="1" parent="1" source="4eMew_aEuMkMtaWdBanc-2" target="4eMew_aEuMkMtaWdBanc-3">
          <mxGeometry relative="1" as="geometry" />
        </mxCell>
        <mxCell id="4eMew_aEuMkMtaWdBanc-2" value="" style="shape=actor;whiteSpace=wrap;html=1;" vertex="1" parent="1">
          <mxGeometry x="90" y="30" width="40" height="60" as="geometry" />
        </mxCell>
        <mxCell id="4eMew_aEuMkMtaWdBanc-3" value="" style="image;aspect=fixed;perimeter=ellipsePerimeter;html=1;align=center;shadow=0;dashed=0;spacingTop=3;image=img/lib/active_directory/internet_cloud.svg;" vertex="1" parent="1">
          <mxGeometry x="190" y="45" width="50" height="31.5" as="geometry" />
        </mxCell>
        <mxCell id="4eMew_aEuMkMtaWdBanc-16" style="edgeStyle=orthogonalEdgeStyle;rounded=0;orthogonalLoop=1;jettySize=auto;html=1;exitX=1;exitY=0.21;exitDx=0;exitDy=0;exitPerimeter=0;" edge="1" parent="1" source="4eMew_aEuMkMtaWdBanc-4" target="4eMew_aEuMkMtaWdBanc-7">
          <mxGeometry relative="1" as="geometry" />
        </mxCell>
        <mxCell id="4eMew_aEuMkMtaWdBanc-4" value="" style="outlineConnect=0;dashed=0;verticalLabelPosition=bottom;verticalAlign=top;align=center;html=1;shape=mxgraph.aws3.cloudfront;fillColor=#F58536;gradientColor=none;" vertex="1" parent="1">
          <mxGeometry x="360" y="110" width="65" height="80" as="geometry" />
        </mxCell>
        <mxCell id="4eMew_aEuMkMtaWdBanc-7" value="" style="outlineConnect=0;dashed=0;verticalLabelPosition=bottom;verticalAlign=top;align=center;html=1;shape=mxgraph.aws3.s3;fillColor=#E05243;gradientColor=none;" vertex="1" parent="1">
          <mxGeometry x="520" y="110" width="61.5" height="80" as="geometry" />
        </mxCell>
        <mxCell id="4eMew_aEuMkMtaWdBanc-21" value="" style="rounded=1;whiteSpace=wrap;html=1;" vertex="1" parent="1">
          <mxGeometry x="110" y="190" width="610" height="670" as="geometry" />
        </mxCell>
        <mxCell id="4eMew_aEuMkMtaWdBanc-18" value="" style="outlineConnect=0;dashed=0;verticalLabelPosition=bottom;verticalAlign=top;align=center;html=1;shape=mxgraph.aws3.virtual_private_cloud;fillColor=#F58534;gradientColor=none;" vertex="1" parent="1">
          <mxGeometry x="91" y="190" width="59.5" height="34" as="geometry" />
        </mxCell>
        <mxCell id="4eMew_aEuMkMtaWdBanc-27" value="" style="outlineConnect=0;dashed=0;verticalLabelPosition=bottom;verticalAlign=top;align=center;html=1;shape=mxgraph.aws3.internet_gateway;fillColor=#F58534;gradientColor=none;" vertex="1" parent="1">
          <mxGeometry x="91" y="232" width="49" height="50" as="geometry" />
        </mxCell>
        <mxCell id="4eMew_aEuMkMtaWdBanc-28" style="edgeStyle=orthogonalEdgeStyle;rounded=0;orthogonalLoop=1;jettySize=auto;html=1;exitX=0.5;exitY=1;exitDx=0;exitDy=0;exitPerimeter=0;entryX=0.5;entryY=0;entryDx=0;entryDy=0;entryPerimeter=0;" edge="1" parent="1" source="4eMew_aEuMkMtaWdBanc-4" target="4eMew_aEuMkMtaWdBanc-9">
          <mxGeometry relative="1" as="geometry" />
        </mxCell>
        <mxCell id="4eMew_aEuMkMtaWdBanc-31" style="edgeStyle=orthogonalEdgeStyle;rounded=0;orthogonalLoop=1;jettySize=auto;html=1;exitX=1;exitY=0.5;exitDx=0;exitDy=0;exitPerimeter=0;" edge="1" parent="1" source="4eMew_aEuMkMtaWdBanc-29" target="4eMew_aEuMkMtaWdBanc-4">
          <mxGeometry relative="1" as="geometry" />
        </mxCell>
        <mxCell id="4eMew_aEuMkMtaWdBanc-29" value="" style="outlineConnect=0;dashed=0;verticalLabelPosition=bottom;verticalAlign=top;align=center;html=1;shape=mxgraph.aws3.route_53;fillColor=#F58536;gradientColor=none;" vertex="1" parent="1">
          <mxGeometry x="270" y="100" width="60" height="85.5" as="geometry" />
        </mxCell>
        <mxCell id="4eMew_aEuMkMtaWdBanc-30" style="edgeStyle=orthogonalEdgeStyle;rounded=0;orthogonalLoop=1;jettySize=auto;html=1;exitX=1;exitY=0.5;exitDx=0;exitDy=0;entryX=0.5;entryY=0;entryDx=0;entryDy=0;entryPerimeter=0;" edge="1" parent="1" source="4eMew_aEuMkMtaWdBanc-3" target="4eMew_aEuMkMtaWdBanc-29">
          <mxGeometry relative="1" as="geometry" />
        </mxCell>
        <mxCell id="4eMew_aEuMkMtaWdBanc-32" value="User" style="text;html=1;align=center;verticalAlign=middle;whiteSpace=wrap;rounded=0;" vertex="1" parent="1">
          <mxGeometry x="80" width="60" height="30" as="geometry" />
        </mxCell>
        <mxCell id="4eMew_aEuMkMtaWdBanc-47" value="" style="rounded=0;whiteSpace=wrap;html=1;dashed=1;dashPattern=8 8;" vertex="1" parent="1">
          <mxGeometry x="160" y="210" width="225" height="550" as="geometry" />
        </mxCell>
        <mxCell id="4eMew_aEuMkMtaWdBanc-33" value="internet" style="text;html=1;align=center;verticalAlign=middle;whiteSpace=wrap;rounded=0;" vertex="1" parent="1">
          <mxGeometry x="185" y="20" width="60" height="30" as="geometry" />
        </mxCell>
        <mxCell id="4eMew_aEuMkMtaWdBanc-34" value="Route53" style="text;html=1;align=center;verticalAlign=middle;whiteSpace=wrap;rounded=0;" vertex="1" parent="1">
          <mxGeometry x="220" y="127.75" width="60" height="30" as="geometry" />
        </mxCell>
        <mxCell id="4eMew_aEuMkMtaWdBanc-35" value="Cloudfront" style="text;html=1;align=center;verticalAlign=middle;whiteSpace=wrap;rounded=0;" vertex="1" parent="1">
          <mxGeometry x="420" y="160" width="60" height="30" as="geometry" />
        </mxCell>
        <mxCell id="4eMew_aEuMkMtaWdBanc-36" value="S3&amp;nbsp;" style="text;html=1;align=center;verticalAlign=middle;whiteSpace=wrap;rounded=0;" vertex="1" parent="1">
          <mxGeometry x="580" y="160" width="60" height="30" as="geometry" />
        </mxCell>
        <mxCell id="4eMew_aEuMkMtaWdBanc-37" value="ALB" style="text;html=1;align=center;verticalAlign=middle;whiteSpace=wrap;rounded=0;" vertex="1" parent="1">
          <mxGeometry x="410" y="262" width="60" height="30" as="geometry" />
        </mxCell>
        <mxCell id="4eMew_aEuMkMtaWdBanc-48" value="" style="rounded=0;whiteSpace=wrap;html=1;dashed=1;dashPattern=8 8;" vertex="1" parent="1">
          <mxGeometry x="410" y="210" width="225" height="550" as="geometry" />
        </mxCell>
        <mxCell id="4eMew_aEuMkMtaWdBanc-49" value="eu-west-2a" style="text;html=1;align=center;verticalAlign=middle;whiteSpace=wrap;rounded=0;" vertex="1" parent="1">
          <mxGeometry x="230" y="210" width="80" height="30" as="geometry" />
        </mxCell>
        <mxCell id="4eMew_aEuMkMtaWdBanc-50" value="eu-west-2b" style="text;html=1;align=center;verticalAlign=middle;whiteSpace=wrap;rounded=0;" vertex="1" parent="1">
          <mxGeometry x="470" y="210" width="80" height="30" as="geometry" />
        </mxCell>
        <mxCell id="4eMew_aEuMkMtaWdBanc-51" value="" style="rounded=0;whiteSpace=wrap;html=1;dashed=1;dashPattern=8 8;" vertex="1" parent="1">
          <mxGeometry x="177" y="262" width="203" height="60" as="geometry" />
        </mxCell>
        <mxCell id="4eMew_aEuMkMtaWdBanc-52" value="" style="rounded=0;whiteSpace=wrap;html=1;dashed=1;dashPattern=8 8;" vertex="1" parent="1">
          <mxGeometry x="420" y="262" width="203" height="60" as="geometry" />
        </mxCell>
        <mxCell id="4eMew_aEuMkMtaWdBanc-9" value="" style="outlineConnect=0;dashed=0;verticalLabelPosition=bottom;verticalAlign=top;align=center;html=1;shape=mxgraph.aws3.application_load_balancer;fillColor=#F58534;gradientColor=none;" vertex="1" parent="1">
          <mxGeometry x="358" y="262" width="69" height="72" as="geometry" />
        </mxCell>
        <mxCell id="4eMew_aEuMkMtaWdBanc-53" value="Public" style="text;html=1;align=center;verticalAlign=middle;whiteSpace=wrap;rounded=0;" vertex="1" parent="1">
          <mxGeometry x="240" y="262" width="60" height="30" as="geometry" />
        </mxCell>
        <mxCell id="4eMew_aEuMkMtaWdBanc-54" value="Public" style="text;html=1;align=center;verticalAlign=middle;whiteSpace=wrap;rounded=0;" vertex="1" parent="1">
          <mxGeometry x="492.5" y="262" width="60" height="30" as="geometry" />
        </mxCell>
        <mxCell id="4eMew_aEuMkMtaWdBanc-55" value="" style="rounded=0;whiteSpace=wrap;html=1;dashed=1;dashPattern=8 8;" vertex="1" parent="1">
          <mxGeometry x="171" y="334" width="203" height="166" as="geometry" />
        </mxCell>
        <mxCell id="4eMew_aEuMkMtaWdBanc-10" value="" style="outlineConnect=0;dashed=0;verticalLabelPosition=bottom;verticalAlign=top;align=center;html=1;shape=mxgraph.aws3.ec2;fillColor=#F58534;gradientColor=none;" vertex="1" parent="1">
          <mxGeometry x="199" y="358.5" width="76.5" height="93" as="geometry" />
        </mxCell>
        <mxCell id="4eMew_aEuMkMtaWdBanc-39" value="Ec2 backend" style="text;html=1;align=center;verticalAlign=middle;whiteSpace=wrap;rounded=0;" vertex="1" parent="1">
          <mxGeometry x="275.5" y="390" width="60" height="30" as="geometry" />
        </mxCell>
        <mxCell id="4eMew_aEuMkMtaWdBanc-22" style="edgeStyle=orthogonalEdgeStyle;rounded=0;orthogonalLoop=1;jettySize=auto;html=1;exitX=0;exitY=0.5;exitDx=0;exitDy=0;exitPerimeter=0;" edge="1" parent="1" source="4eMew_aEuMkMtaWdBanc-9" target="4eMew_aEuMkMtaWdBanc-10">
          <mxGeometry relative="1" as="geometry" />
        </mxCell>
        <mxCell id="4eMew_aEuMkMtaWdBanc-56" value="Private" style="text;html=1;align=center;verticalAlign=middle;whiteSpace=wrap;rounded=0;" vertex="1" parent="1">
          <mxGeometry x="230" y="470" width="60" height="30" as="geometry" />
        </mxCell>
        <mxCell id="4eMew_aEuMkMtaWdBanc-57" value="" style="rounded=0;whiteSpace=wrap;html=1;dashed=1;dashPattern=8 8;" vertex="1" parent="1">
          <mxGeometry x="420" y="334" width="203" height="166" as="geometry" />
        </mxCell>
        <mxCell id="4eMew_aEuMkMtaWdBanc-58" value="Private" style="text;html=1;align=center;verticalAlign=middle;whiteSpace=wrap;rounded=0;" vertex="1" parent="1">
          <mxGeometry x="490" y="470" width="60" height="30" as="geometry" />
        </mxCell>
        <mxCell id="4eMew_aEuMkMtaWdBanc-59" value="" style="rounded=0;whiteSpace=wrap;html=1;dashed=1;dashPattern=8 8;" vertex="1" parent="1">
          <mxGeometry x="171" y="522" width="203" height="166" as="geometry" />
        </mxCell>
        <mxCell id="4eMew_aEuMkMtaWdBanc-11" value="" style="outlineConnect=0;dashed=0;verticalLabelPosition=bottom;verticalAlign=top;align=center;html=1;shape=mxgraph.aws3.rds;fillColor=#2E73B8;gradientColor=none;" vertex="1" parent="1">
          <mxGeometry x="195" y="590" width="72" height="81" as="geometry" />
        </mxCell>
        <mxCell id="4eMew_aEuMkMtaWdBanc-40" value="RDS" style="text;html=1;align=center;verticalAlign=middle;whiteSpace=wrap;rounded=0;" vertex="1" parent="1">
          <mxGeometry x="260" y="590" width="60" height="30" as="geometry" />
        </mxCell>
        <mxCell id="4eMew_aEuMkMtaWdBanc-61" value="DB" style="text;html=1;align=center;verticalAlign=middle;whiteSpace=wrap;rounded=0;" vertex="1" parent="1">
          <mxGeometry x="260" y="658" width="60" height="30" as="geometry" />
        </mxCell>
        <mxCell id="4eMew_aEuMkMtaWdBanc-60" style="edgeStyle=orthogonalEdgeStyle;rounded=0;orthogonalLoop=1;jettySize=auto;html=1;exitX=0.5;exitY=1;exitDx=0;exitDy=0;exitPerimeter=0;" edge="1" parent="1" source="4eMew_aEuMkMtaWdBanc-10" target="4eMew_aEuMkMtaWdBanc-11">
          <mxGeometry relative="1" as="geometry" />
        </mxCell>
        <mxCell id="4eMew_aEuMkMtaWdBanc-62" value="" style="rounded=0;whiteSpace=wrap;html=1;dashed=1;dashPattern=8 8;" vertex="1" parent="1">
          <mxGeometry x="421" y="522" width="203" height="166" as="geometry" />
        </mxCell>
        <mxCell id="4eMew_aEuMkMtaWdBanc-63" value="DB" style="text;html=1;align=center;verticalAlign=middle;whiteSpace=wrap;rounded=0;" vertex="1" parent="1">
          <mxGeometry x="491.5" y="660" width="60" height="30" as="geometry" />
        </mxCell>
      </root>
    </mxGraphModel>
  </diagram>
</mxfile>
